<svg version="1" xmlns="http://www.w3.org/2000/svg" width="970.667" height="970.667" viewBox="0 0 728.000000 728.000000"><path d="M309.5 104.3c-5.5 2.1-10.2 5.6-12.7 9.4-1.4 2.1-30.4 51.7-64.5 110.3C123.4 411.2 53 532.3 26.2 578.5l-26.1 45 6.2.6c3.4.4 97.8.7 209.7.8 196.1.1 203.6 0 207.5-1.8 2.2-1 5.2-3.1 6.6-4.7 1.5-1.6 27.3-45.4 57.4-97.4 30.2-52 95.3-164.2 144.8-249.4C708.8 139.8 728 106.1 728 103.4c0-.2-93.5-.4-207.7-.3-156.5 0-208.6.3-210.8 1.2zm132.1 142.9c-1.4 2.4-53.7 89.9-54.2 90.8-.1.3.1 1.1.5 1.8.5.8 15.3-7.5 47-26.3 25.5-15.2 46.6-27.4 46.8-27.2.2.2.2 35.3.1 77.9l-.3 77.6-46.4-27.5c-31.7-18.8-46.7-27.1-47.4-26.4-.7.7 7.7 15.6 26.8 47.6 15.2 25.6 27.5 46.8 27.3 47.1-.3.2-35.4.3-78.1.2l-77.6-.3 27.1-45.3c24-40.2 26.9-45.5 25.6-46.9-1.4-1.3-6.6 1.6-46.6 25.1-24.8 14.6-45.3 26.6-45.6 26.6-.3 0-.6-35.1-.6-78s.2-78 .5-78c.9 0 88.8 52.2 90.8 53.8 2.5 2.2 3.1.9 1.1-3-.9-1.8-12.6-22.2-25.9-45.3-13.3-23.1-24.7-43-25.4-44.3l-1.2-2.2H443l-1.4 2.2z"/></svg>