<svg id="Layer_1" data-name="Layer 1" xmlns="http://www.w3.org/2000/svg" viewBox="0 0 262.3 262.17"><defs><style>.cls-1{fill:#30b67e;}.cls-2{fill:#df215c;}.cls-3{fill:#37c4ef;}.cls-4{fill:#ebb22f;}.cls-5{fill:#ebb231;}.cls-6{fill:#df1f5b;}.cls-7{fill:#38c5ef;}</style></defs><title>slack</title><path class="cls-1" d="M207.85,71.18c0,11,0,22,0,33-.08,16.25-11.71,28.68-26.9,28.84-16.4.17-28.51-11.31-28.72-28q-.43-34.23,0-68.45c.22-16,12.61-27.84,28.12-27.68s27.33,12.32,27.48,28.34C207.94,48.53,207.85,59.86,207.85,71.18Z" transform="translate(-14.34 -8.84)"/><path class="cls-2" d="M138.85,208.74c0,11.33,0,22.65,0,34-.07,15.87-12.1,28.2-27.53,28.28-15.73.09-27.83-12.17-27.87-28.4q-.09-33.72,0-67.45c0-16.47,11.71-28.32,27.73-28.32s27.65,12,27.67,28.44Q138.87,192,138.85,208.74Z" transform="translate(-14.34 -8.84)"/><path class="cls-3" d="M76.49,77.86c11.65,0,23.31-.07,35,0A27.56,27.56,0,1,1,111,133q-34.47,0-68.94,0a27.55,27.55,0,0,1-.59-55.1C53.17,77.75,64.83,77.87,76.49,77.86Z" transform="translate(-14.34 -8.84)"/><path class="cls-4" d="M215,146.86c11.49,0,23-.06,34.47,0a27.24,27.24,0,0,1,27.15,27.41c.09,15.05-12,27.61-27,27.69q-35.2.18-70.43,0c-14.88-.08-27.27-13-27-27.78a27.59,27.59,0,0,1,27.41-27.31C191.38,146.81,203.2,146.86,215,146.86Z" transform="translate(-14.34 -8.84)"/><path class="cls-5" d="M152.84,214.81c11.58.61,23.5.06,34.93,2.16,12.93,2.37,21.54,16.39,19.93,29-1.8,14.15-13,24.58-26.75,25s-26.36-9-27.87-22.71C151.9,237.67,152.84,226.81,152.84,214.81Z" transform="translate(-14.34 -8.84)"/><path class="cls-1" d="M221.79,133c0-11.27-1.11-22.17.27-32.75,2-15.14,16.15-24.39,31.52-22.19,13.63,2,24,15.27,23,29.42A27.34,27.34,0,0,1,249,133C239.89,133,230.77,133,221.79,133Z" transform="translate(-14.34 -8.84)"/><path class="cls-6" d="M69.77,146.85c0,10.61.7,20.79-.16,30.84C68.39,191.74,56.39,201.94,42.46,202a27.67,27.67,0,0,1-7.64-54.33,19,19,0,0,1,4.9-.78C49.55,146.81,59.38,146.85,69.77,146.85Z" transform="translate(-14.34 -8.84)"/><path class="cls-7" d="M138,64c-10.11,0-20.28.51-30.39-.13C94.16,63,83.41,50.49,83.33,36.64s10.58-26,24-27.59c14.3-1.67,28.3,6.94,30.3,20.72C139.27,40.79,138,52.23,138,64Z" transform="translate(-14.34 -8.84)"/></svg>